<svg xmlns="http://www.w3.org/2000/svg" viewBox="0 0 600 600" width="600" height="600" role="img">
  <defs>
    <linearGradient id="bg-mochila" x1="0" y1="0" x2="0" y2="1">
      <stop offset="0%" stop-color="#FCF8FF"/>
      <stop offset="100%" stop-color="#F0E6FB"/>
    </linearGradient>
  <linearGradient id="body-mochila" x1="0" y1="0" x2="1" y2="1">
    <stop offset="0%" stop-color="#B98FE8"/>
    <stop offset="100%" stop-color="#8F63D2"/>
  </linearGradient>
  </defs>
  <rect width="600" height="600" fill="url(#bg-mochila)"/>
  <circle cx="300" cy="312" r="212" fill="#FFFFFF" opacity="0.55"/>
  <circle cx="452" cy="140" r="58" fill="#B98FE8" opacity="0.35"/>
  <circle cx="132" cy="470" r="76" fill="#8F63D2" opacity="0.18"/>
  
    <path d="M220 210h160c40 0 70 32 70 72v148a40 40 0 0 1-40 40H190a40 40 0 0 1-40-40V282c0-40 30-72 70-72z" fill="url(#body-mochila)"/>
    <path d="M228 214c0-46 32-78 72-78s72 32 72 78" stroke="#57318F" stroke-width="18" fill="none"/>
    <rect x="228" y="300" width="144" height="106" rx="22" fill="#FFFFFF" opacity="0.85"/>
    <rect x="262" y="336" width="76" height="16" rx="8" fill="#57318F" opacity="0.5"/>
    <rect x="262" y="362" width="50" height="16" rx="8" fill="#EC008C" opacity="0.5"/>
    <rect x="150" y="248" width="34" height="130" rx="17" fill="#57318F" opacity="0.55"/>
    <rect x="416" y="248" width="34" height="130" rx="17" fill="#57318F" opacity="0.55"/>
</svg>
